Coordinates
version=1
nRows=12
nColumns=24
inDegrees=yes

Units are S.I. units (second, meters, Newtons, ...)
Angles are in degrees.

endheader
time	pelvis_tilt	pelvis_list	pelvis_rotation	pelvis_tx	pelvis_ty	pelvis_tz	hip_flexion_r	hip_adduction_r	hip_rotation_r	knee_angle_r	ankle_angle_r	subtalar_angle_r	mtp_angle_r	hip_flexion_l	hip_adduction_l	hip_rotation_l	knee_angle_l	ankle_angle_l	subtalar_angle_l	mtp_angle_l	lumbar_extension	lumbar_bending	lumbar_rotation
      1.28300000	      1.08358767	      1.72812286	     -5.02832261	      0.31091715	      1.08191941	      0.32619291	     13.89809928	     -5.99524924	     -6.43717270	    -67.64038302	      0.11305529	     -8.34392484	      6.43913512	      8.74161802	      4.27281910	      0.28690840	    -17.93389824	      8.81486771	     -0.29157083	      1.69666469	    -18.27643484	     -4.06441173	     -1.00774323
      1.28716667	      1.11982966	      1.59353708	     -4.91608957	      0.31600569	      1.08303716	      0.32587081	     14.30062161	     -5.85049231	     -6.63755292	    -67.17010415	      0.44811672	     -7.99203587	      6.39589865	      8.17436503	      4.17808532	      0.42116052	    -17.48319079	      8.84918952	     -0.26859516	      1.69581954	    -18.32122447	     -3.84948537	     -1.23675009
      1.29133333	      1.14836462	      1.44343029	     -4.79179077	      0.32106896	      1.08411687	      0.32554456	     14.69539012	     -5.68230772	     -6.84499886	    -66.64159673	      0.77472579	     -7.62416520	      6.36618425	      7.62138901	      4.06250083	      0.56421168	    -17.04200833	      8.86142876	     -0.23205532	      1.69500647	    -18.37815618	     -3.60754432	     -1.43148262
      1.29550000	      1.17633620	      1.29465209	     -4.66084196	      0.32611594	      1.08515181	      0.32520851	     15.07867353	     -5.51437308	     -7.05750418	    -66.06194977	      1.10822843	     -7.21050232	      6.35004633	      7.07121585	      3.94647439	      0.71014880	    -16.60022320	      8.87888238	     -0.18923279	      1.69475276	    -18.43617169	     -3.36868465	     -1.62672485
      1.29966667	      1.18052646	      1.14503891	     -4.52151204	      0.33116720	      1.08609843	      0.32488624	     15.47432207	     -5.33951776	     -7.27417210	    -65.43453174	      1.44323482	     -6.77014843	      6.34612739	      6.55296359	      3.82280069	      0.85395087	    -16.16972856	      8.89339560	     -0.14190797	      1.69493439	    -18.46675300	     -3.13143018	     -1.81525997
      1.30383333	      1.18982162	      1.01219623	     -4.37763517	      0.33621389	      1.08699365	      0.32455486	     15.85653879	     -5.18682556	     -7.49627002	    -64.76950732	      1.78946296	     -6.29262297	      6.35231337	      6.02856750	      3.71682687	      1.00310267	    -15.73148548	      8.90979830	     -0.10162624	      1.69511017	    -18.49493163	     -2.90346010	     -2.01700205
      1.30800000	      1.22148479	      0.88600731	     -4.22903119	      0.34123591	      1.08787889	      0.32422711	     16.20354080	     -5.04331031	     -7.72310270	    -64.05872234	      2.13420149	     -5.80258290	      6.36777686	      5.47840650	      3.61633813	      1.15408059	    -15.28070250	      8.92005305	     -0.06596477	      1.69528851	    -18.55244208	     -2.67127994	     -2.22790203
      1.31216667	      1.23516663	      0.76501040	     -4.07874486	      0.34626782	      1.08867489	      0.32390234	     16.55997603	     -4.90127398	     -7.94700033	    -63.30927134	      2.47812775	     -5.29921495	      6.39222265	      4.95186284	      3.51877009	      1.31275374	    -14.83997227	      8.93637136	     -0.03499866	      1.69572271	    -18.58483324	     -2.45294092	     -2.44320507
      1.31633333	      1.25621606	      0.64154829	     -3.92347355	      0.35129016	      1.08944751	      0.32357964	     16.89313748	     -4.75443129	     -8.17169256	    -62.50858223	      2.80804084	     -4.80991581	      6.42383337	      4.41876459	      3.41437046	      1.46830910	    -14.39715866	      8.95046602	     -0.00009095	      1.69636553	    -18.62623321	     -2.23478403	     -2.64689980
      1.32050000	      1.23737975	      0.53612063	     -3.76958634	      0.35632819	      1.09007012	      0.32327571	     17.26581244	     -4.62295556	     -8.39212155	    -61.68224089	      3.14134977	     -4.30875725	      6.46325630	      3.93407302	      3.32427758	      1.62301099	    -13.96470841	      8.96922194	      0.03134676	      1.69711526	    -18.61611264	     -2.03319770	     -2.85461782
      1.32466667	      1.25145939	      0.43091183	     -3.61378764	      0.36133969	      1.09071062	      0.32297982	     17.58751961	     -4.49043835	     -8.61022279	    -60.80631524	      3.46323645	     -3.82253912	      6.50837488	      3.41529477	      3.23265154	      1.77365089	    -13.52881582	      8.98587609	      0.06299869	      1.69773656	    -18.64979702	     -1.83442853	     -3.05796086
      1.32883333	      1.23249498	      0.33912679	     -3.46069033	      0.36636764	      1.09122285	      0.32269978	     17.93948261	     -4.36820660	     -8.81960719	    -59.90232697	      3.77764455	     -3.34822194	      6.55923202	      2.93445185	      3.15068655	      1.92381000	    -13.09819093	      9.00901377	      0.09284176	      1.69859161	    -18.63633749	     -1.64560125	     -3.26308205
